{"title":"Sherlock Holmes(2009)MP-4[DaScubaDude]","uid":12352222,"size":1571495048,"categoryP":"video","categoryS":"movies","magnet":"?xt=urn:btih:6e3580fd92a6b82ff39dfb7dbed4e3d7103e6c08&amp;dn=Sherlock+Holmes%282009%29MP-4%5BDaScubaDude%5D&amp;tr=udp%3A%2F%2Ftracker.openbittorrent.com%3A80&amp;tr=udp%3A%2F%2Fopen.demonii.com%3A1337&amp;tr=udp%3A%2F%2Ftracker.coppersurfer.tk%3A6969&amp;tr=udp%3A%2F%2Fexodus.desync.com%3A6969","seeders":0,"leechers":0,"uploader":"dascuba","files":1,"time":1441441009,"description":"Sherlock Holmes (2009)\nPG-13  |  128 min  |  Action, Adventure, Crime  |  25 December 2009 (USA)\n7.6 Your rating:   -/10   Ratings: 7.6/10 from 432,534 users   Metascore: 57/100 \nReviews: 609 user | 406 critic | 34 from Metacritic.com\nDetective Sherlock Holmes and his stalwart partner Watson engage in a battle of wits and brawn with a nemesis whose plot is a threat to all of England.\n\nDirector: Guy Ritchie\nWriters: Michael Robert Johnson (screenplay), Anthony Peckham (screenplay), 4 more credits Â»\nStars: Robert Downey Jr., Jude Law, Rachel McAdams\n\nGeneral\nComplete name                     : C:Sherlock HolmesSHERLOCK_HOLMES_Title1.mp4\nFormat                                   : MPEG-4\nFormat profile                           : Base Media\nCodec ID                                 : isom\nFile size                                : 1.46 GiB\nDuration                                 : 2h 8mn\nOverall bit rate mode                    : Constant\nOverall bit rate                         : 1 632 Kbps\nMovie name                               : SHERLOCK_HOLMES\nGenre                                    : Action\nWriting application                      : Lavf54.6.100\n\nVideo\nID                                       : 1\nFormat                                   : MPEG-4 Visual\nFormat settings, BVOP                    : No\nFormat settings, QPel                    : No\nFormat settings, GMC                     : No warppoints\nFormat settings, Matrix                  : Default (H.263)\nCodec ID                                 : 20\nDuration                                 : 2h 8mn\nBit rate mode                            : Constant\nBit rate                                 : 1 499 Kbps\nWidth                                    : 720 pixels\nHeight                                   : 404 pixels\nDisplay aspect ratio                     : 16:9\nFrame rate mode                          : Constant\nFrame rate                               : 29.970 fps\nColor space                              : YUV\nChroma subsampling                       : 4:2:0\nBit depth                                : 8 bits\nScan type                                : Progressive\nCompression mode                         : Lossy\nBits/(Pixel*Frame)                       : 0.172\nStream size                              : 1.34 GiB (92%)\nWriting library                          : Lavc54.23.100\n\nAudio\nID                                       : 2\nFormat                                   : MPEG Audio\nFormat version                           : Version 1\nFormat profile                           : Layer 3\nCodec ID                                 : 6B\nDuration                                 : 2h 8mn\nBit rate mode                            : Constant\nBit rate                                 : 128 Kbps\nChannel(s)                               : 2 channels\nSampling rate                            : 44.1 KHz\nCompression mode                         : Lossy\nStream size                              : 118 MiB (8%)","torrent":{"xt":"urn:btih:6e3580fd92a6b82ff39dfb7dbed4e3d7103e6c08","amp;dn":"Sherlock+Holmes%282009%29MP-4%5BDaScubaDude%5D","amp;tr":["udp%3A%2F%2Ftracker.openbittorrent.com%3A80","udp%3A%2F%2Fopen.demonii.com%3A1337","udp%3A%2F%2Ftracker.coppersurfer.tk%3A6969","udp%3A%2F%2Fexodus.desync.com%3A6969"],"infoHash":"6e3580fd92a6b82ff39dfb7dbed4e3d7103e6c08","infoHashBuffer":{"type":"Buffer","data":[110,53,128,253,146,166,184,47,243,157,251,125,190,212,227,215,16,62,108,8]},"announce":[],"urlList":[]}}